<?xml version="1.0" encoding="utf-8"?>
<!-- Generator: Adobe Illustrator 28.0.0, SVG Export Plug-In . SVG Version: 6.00 Build 0)  -->
<svg version="1.1" id="Layer_1" xmlns="http://www.w3.org/2000/svg" xmlns:xlink="http://www.w3.org/1999/xlink" x="0px" y="0px"
	 viewBox="0 0 92 92" style="enable-background:new 0 0 92 92;" xml:space="preserve">
<style type="text/css">
	.st0{clip-path:url(#SVGID_00000018210883407837861400000017101426979191925905_);fill:#E0E0E0;}
</style>
<g>
	<g>
		<defs>
			<rect id="SVGID_1_" x="3.4" y="3.5" width="85" height="85"/>
		</defs>
		<clipPath id="SVGID_00000150076181651751654570000003073209704039665296_">
			<use xlink:href="#SVGID_1_"  style="overflow:visible;"/>
		</clipPath>
		<path style="clip-path:url(#SVGID_00000150076181651751654570000003073209704039665296_);fill:#E0E0E0;" d="M86.9,42.3L49.7,5.1
			c-2.1-2.1-5.6-2.1-7.8,0l0,0l-7.7,7.7l9.8,9.8c2.3-0.8,4.9-0.2,6.7,1.6c1.8,1.8,2.4,4.3,1.6,6.8l9.4,9.4c2.3-0.8,5-0.2,6.8,1.6
			c2.5,2.5,2.5,6.7,0,9.3l0,0c-2.6,2.5-6.7,2.5-9.3,0c-1.9-1.9-2.4-4.6-1.4-7.1L49,35.3v23.1c3.2,1.6,4.5,5.5,3,8.7
			c-0.3,0.6-0.7,1.2-1.2,1.8c-2.5,2.5-6.7,2.5-9.3,0l0,0c-2.5-2.5-2.6-6.7,0-9.3l0,0c0.6-0.6,1.3-1.1,2.1-1.4V34.8
			c-3.3-1.4-4.9-5.2-3.5-8.5l0,0l-9.7-9.6L5,42.1c-2.1,2.1-2.1,5.6,0,7.8L42.1,87c2.1,2.1,5.6,2.1,7.8,0l36.9-36.9
			C89,47.9,89,44.4,86.9,42.3"/>
	</g>
</g>
</svg>
