<?xml version="1.0" encoding="utf-8"?>
<!-- Generator: Adobe Illustrator 28.0.0, SVG Export Plug-In . SVG Version: 6.00 Build 0)  -->
<svg version="1.1" id="Layer_1" xmlns="http://www.w3.org/2000/svg" xmlns:xlink="http://www.w3.org/1999/xlink" x="0px" y="0px"
	 viewBox="0 0 16 16" style="enable-background:new 0 0 16 16;" xml:space="preserve">
<style type="text/css">
	.st0{fill:#E0E0E0;enable-background:new    ;}
</style>
<path class="st0" d="M7,15.3c1.1-0.6,1.4-1.9,0.8-2.9c-0.2-0.3-0.4-0.6-0.8-0.8v-0.3h3.2c0.6,0,1.1-0.4,1.1-1.1V7h0.2
	c0.6,1.1,1.9,1.4,2.9,0.8c1.1-0.6,1.4-1.9,0.8-2.9c-0.6-1.1-1.9-1.4-2.9-0.8c-0.2,0.2-0.4,0.4-0.6,0.8h-0.2V1.7
	c0-0.6-0.4-1.1-1.1-1.1h-8l0.9,0.9c0.4-0.1,1,0,1.3,0.3S5,2.6,4.9,3.1l1.7,1.7c0.4-0.1,1,0,1.3,0.3c0.4,0.4,0.4,1.3,0,1.7l0,0
	c-0.4,0.4-1.3,0.4-1.7,0c-0.4-0.4-0.5-1-0.4-1.4L4.1,3.8v4.3c0.6,0.3,0.9,1,0.5,1.6c0,0.1-0.1,0.2-0.2,0.3c-0.4,0.4-1.3,0.4-1.7,0
	l0,0c-0.4-0.4-0.4-1.3,0-1.7l0,0C2.8,8.2,2.9,8.1,3.1,8V3.7c-0.6-0.3-1-1-0.6-1.6l0,0L1.1,0.8C0.8,0.9,0.6,1.2,0.6,1.7v8.6
	c0,0.6,0.4,1.1,1.1,1.1h3.2v0.2c-1.1,0.6-1.4,1.9-0.8,2.9C4.8,15.6,6.1,16,7,15.3z"/>
</svg>
